<svg width="114" height="114" viewBox="0 0 114 114" fill="none" xmlns="http://www.w3.org/2000/svg">
<rect x="2" y="2" width="110" height="110" rx="2" fill="#0A9418" fill-opacity="0.75" stroke="#06600F" stroke-width="4"/>
<path d="M55 48.1211C55 49.5013 54.6549 50.7253 53.9648 51.793C53.2747 52.8607 52.3242 53.7135 51.1133 54.3516C52.4935 55.0156 53.5872 55.9336 54.3945 57.1055C55.2018 58.2643 55.6055 59.6315 55.6055 61.207C55.6055 63.7331 54.7461 65.7318 53.0273 67.2031C51.3086 68.6615 48.9714 69.3906 46.0156 69.3906C43.0599 69.3906 40.7161 68.6549 38.9844 67.1836C37.2526 65.7122 36.3867 63.7201 36.3867 61.207C36.3867 59.6315 36.7904 58.2578 37.5977 57.0859C38.4049 55.9141 39.4922 55.0026 40.8594 54.3516C39.6484 53.7135 38.6979 52.8607 38.0078 51.793C37.3307 50.7253 36.9922 49.5013 36.9922 48.1211C36.9922 45.6992 37.7995 43.7721 39.4141 42.3398C41.0286 40.8945 43.2227 40.1719 45.9961 40.1719C48.7565 40.1719 50.944 40.888 52.5586 42.3203C54.1862 43.7396 55 45.6732 55 48.1211ZM49.9414 60.7969C49.9414 59.5599 49.5833 58.5703 48.8672 57.8281C48.151 57.0859 47.1875 56.7148 45.9766 56.7148C44.7786 56.7148 43.8216 57.0859 43.1055 57.8281C42.3893 58.5573 42.0312 59.5469 42.0312 60.7969C42.0312 62.0078 42.3828 62.9844 43.0859 63.7266C43.7891 64.4688 44.7656 64.8398 46.0156 64.8398C47.2396 64.8398 48.1966 64.4818 48.8867 63.7656C49.5898 63.0495 49.9414 62.0599 49.9414 60.7969ZM49.3555 48.3945C49.3555 47.2878 49.0625 46.4023 48.4766 45.7383C47.8906 45.0612 47.0638 44.7227 45.9961 44.7227C44.9414 44.7227 44.1211 45.0482 43.5352 45.6992C42.9492 46.3503 42.6562 47.2487 42.6562 48.3945C42.6562 49.5273 42.9492 50.4388 43.5352 51.1289C44.1211 51.819 44.9479 52.1641 46.0156 52.1641C47.0833 52.1641 47.9036 51.819 48.4766 51.1289C49.0625 50.4388 49.3555 49.5273 49.3555 48.3945ZM77.9688 48.1211C77.9688 49.5013 77.6237 50.7253 76.9336 51.793C76.2435 52.8607 75.293 53.7135 74.082 54.3516C75.4622 55.0156 76.556 55.9336 77.3633 57.1055C78.1706 58.2643 78.5742 59.6315 78.5742 61.207C78.5742 63.7331 77.7148 65.7318 75.9961 67.2031C74.2773 68.6615 71.9401 69.3906 68.9844 69.3906C66.0286 69.3906 63.6849 68.6549 61.9531 67.1836C60.2214 65.7122 59.3555 63.7201 59.3555 61.207C59.3555 59.6315 59.7591 58.2578 60.5664 57.0859C61.3737 55.9141 62.4609 55.0026 63.8281 54.3516C62.6172 53.7135 61.6667 52.8607 60.9766 51.793C60.2995 50.7253 59.9609 49.5013 59.9609 48.1211C59.9609 45.6992 60.7682 43.7721 62.3828 42.3398C63.9974 40.8945 66.1914 40.1719 68.9648 40.1719C71.7253 40.1719 73.9128 40.888 75.5273 42.3203C77.1549 43.7396 77.9688 45.6732 77.9688 48.1211ZM72.9102 60.7969C72.9102 59.5599 72.5521 58.5703 71.8359 57.8281C71.1198 57.0859 70.1562 56.7148 68.9453 56.7148C67.7474 56.7148 66.7904 57.0859 66.0742 57.8281C65.3581 58.5573 65 59.5469 65 60.7969C65 62.0078 65.3516 62.9844 66.0547 63.7266C66.7578 64.4688 67.7344 64.8398 68.9844 64.8398C70.2083 64.8398 71.1654 64.4818 71.8555 63.7656C72.5586 63.0495 72.9102 62.0599 72.9102 60.7969ZM72.3242 48.3945C72.3242 47.2878 72.0312 46.4023 71.4453 45.7383C70.8594 45.0612 70.0326 44.7227 68.9648 44.7227C67.9102 44.7227 67.0898 45.0482 66.5039 45.6992C65.918 46.3503 65.625 47.2487 65.625 48.3945C65.625 49.5273 65.918 50.4388 66.5039 51.1289C67.0898 51.819 67.9167 52.1641 68.9844 52.1641C70.0521 52.1641 70.8724 51.819 71.4453 51.1289C72.0312 50.4388 72.3242 49.5273 72.3242 48.3945Z" fill="white"/>
</svg>
